SplineFontDB: 3.2
FontName: Roland
FullName: Roland
FamilyName: Roland
Weight: Light
Copyright: Copyright (c) 2020, Roland Bernard
UComments: "2020-8-28: Created with FontForge (http://fontforge.org)"
Version: 001.000
ItalicAngle: 0
UnderlinePosition: -100
UnderlineWidth: 50
Ascent: 800
Descent: 200
InvalidEm: 0
LayerCount: 2
Layer: 0 0 "Back" 1
Layer: 1 0 "Fore" 0
XUID: [1021 36 1614478912 11935583]
FSType: 0
OS2Version: 0
OS2_WeightWidthSlopeOnly: 0
OS2_UseTypoMetrics: 1
CreationTime: 1598621781
ModificationTime: 1599853580
PfmFamily: 17
TTFWeight: 1
TTFWidth: 1
LineGap: 90
VLineGap: 0
OS2TypoAscent: 0
OS2TypoAOffset: 1
OS2TypoDescent: 0
OS2TypoDOffset: 1
OS2TypoLinegap: 90
OS2WinAscent: 0
OS2WinAOffset: 1
OS2WinDescent: 0
OS2WinDOffset: 1
HheadAscent: 0
HheadAOffset: 1
HheadDescent: 0
HheadDOffset: 1
OS2CapHeight: 750
OS2XHeight: 500
OS2Vendor: 'PfEd'
MarkAttachClasses: 1
DEI: 91125
LangName: 1033
Encoding: UnicodeBmp
UnicodeInterp: none
NameList: AGL For New Fonts
DisplaySize: -48
AntiAlias: 1
FitToEm: 0
WinInfo: 0 30 14
BeginPrivate: 1
BlueValues 22 [-2 0 500 502 750 752]
EndPrivate
BeginChars: 65536 105

StartChar: X
Encoding: 88 88 0
Width: 336
Flags: MW
LayerCount: 2
Fore
SplineSet
30 750 m 1
 56.353515625 750 l 1
 168.17578125 414.53125 l 1
 279.998046875 750 l 1
 306.3515625 750 l 1
 181.353515625 375 l 1
 306.3515625 0 l 1
 279.998046875 0 l 1
 168.17578125 335.46875 l 1
 56.353515625 0 l 1
 30 0 l 1
 154.998046875 375 l 1
 30 750 l 1
EndSplineSet
EndChar

StartChar: Q
Encoding: 81 81 1
Width: 482
Flags: MW
LayerCount: 2
Fore
SplineSet
238.5 752 m 2
 239.5 752 l 2
 343.458007812 752 427 667.458007812 427 563.5 c 2
 427 186.5 l 2
 427 139.010742188 409.3515625 95.580078125 380.275390625 62.40234375 c 1
 442.677734375 0 l 1
 407.32421875 0 l 1
 362.59765625 44.724609375 l 1
 329.419921875 15.6484375 286.989257812 -2 239.5 -2 c 2
 238.5 -2 l 2
 134.541992188 -2 50 82.5419921875 50 186.5 c 2
 50 563.5 l 2
 50 667.458007812 134.541992188 752 238.5 752 c 2
238.5 728 m 2
 148.053710938 728 75 653.946289062 75 563.5 c 2
 75 186.5 l 2
 75 96.0537109375 148.053710938 22 238.5 22 c 2
 239.5 22 l 2
 280.359375 22 316.66796875 37.115234375 345.296875 62.025390625 c 1
 274.560546875 132.76171875 l 1
 309.9140625 132.76171875 l 1
 362.857421875 79.8203125 l 1
 387.268554688 108.600585938 402 145.89453125 402 186.5 c 2
 402 563.5 l 2
 402 653.946289062 329.946289062 728 239.5 728 c 2
 238.5 728 l 2
EndSplineSet
EndChar

StartChar: e
Encoding: 101 101 3
Width: 342
Flags: MW
LayerCount: 2
Fore
SplineSet
171 502 m 2
 171.052734375 502 l 2
 240.467773438 501.985351562 297 445.421875 297 376 c 2
 297 238 l 1
 70 238 l 1
 70 124 l 2
 70 68.0712890625 115.071289062 22 171 22 c 2
 186 22 l 2
 214.090820312 22 239.440429688 33.625 257.71875 52.28125 c 1
 275.0390625 34.9609375 l 1
 252.21875 12.140625 220.719726562 -2 186 -2 c 2
 171 -2 l 2
 101.560546875 -2 45 54.560546875 45 124 c 2
 45 376 l 2
 45 445.439453125 101.560546875 502.014648438 171 502 c 2
171 478 m 2
 115.071289062 478.013671875 70 431.928710938 70 376 c 2
 70 262 l 1
 272 262 l 1
 272 376 l 2
 272 431.912109375 226.955078125 477.986328125 171.049804688 478 c 2
 171 478 l 2
EndSplineSet
EndChar

StartChar: exclam
Encoding: 33 33 4
Width: 150
Flags: MW
LayerCount: 2
Fore
SplineSet
62.5 175 m 5
 62.5 750 l 5
 87.5 750 l 5
 87.5 175 l 5
 62.5 175 l 5
50 23 m 4
 50 36.806640625 61.193359375 48 75 48 c 4
 88.806640625 48 100 36.806640625 100 23 c 4
 100 9.193359375 88.806640625 -2 75 -2 c 4
 61.193359375 -2 50 9.193359375 50 23 c 4
EndSplineSet
EndChar

StartChar: quotedbl
Encoding: 34 34 5
Width: 200
Flags: MW
LayerCount: 2
Fore
SplineSet
37.5 550 m 5
 37.5 750 l 5
 62.5 750 l 5
 62.5 550 l 5
 37.5 550 l 5
137.5 550 m 5
 137.5 750 l 5
 162.5 750 l 5
 162.5 550 l 5
 137.5 550 l 5
EndSplineSet
EndChar

StartChar: numbersign
Encoding: 35 35 6
Width: 391
Flags: MW
LayerCount: 2
Fore
SplineSet
182.833984375 750 m 5
 208.177734375 750 l 5
 168.51171875 512 l 5
 268.166015625 512 l 5
 307.833984375 750 l 5
 333.177734375 750 l 5
 293.51171875 512 l 5
 356.01171875 512 l 5
 352.01171875 488 l 5
 289.51171875 488 l 5
 251.845703125 262 l 5
 314.34375 262 l 5
 310.34375 238 l 5
 247.845703125 238 l 5
 208.177734375 0 l 5
 182.833984375 0 l 5
 222.5 238 l 5
 122.845703125 238 l 5
 83.177734375 0 l 5
 57.833984375 0 l 5
 97.5 238 l 5
 35 238 l 5
 39 262 l 5
 101.5 262 l 5
 139.166015625 488 l 5
 76.666015625 488 l 5
 80.666015625 512 l 5
 143.166015625 512 l 5
 182.833984375 750 l 5
164.51171875 488 m 5
 126.845703125 262 l 5
 226.5 262 l 5
 264.166015625 488 l 5
 164.51171875 488 l 5
EndSplineSet
EndChar

StartChar: zero
Encoding: 48 48 7
Width: 352
Flags: HMW
LayerCount: 2
Fore
SplineSet
176 752 m 0
 245.439453125 752 302 695.439453125 302 626 c 2
 302 124 l 2
 302 54.560546875 245.439453125 -2 176 -2 c 0
 106.560546875 -2 50 54.560546875 50 124 c 2
 50 626 l 2
 50 695.439453125 106.560546875 752 176 752 c 0
176 728 m 0
 120.071289062 728 75 681.928710938 75 626 c 2
 75 124 l 2
 75 68.0712890625 120.071289062 22 176 22 c 0
 231.928710938 22 277 68.0712890625 277 124 c 2
 277 626 l 2
 277 681.928710938 231.928710938 728 176 728 c 0
EndSplineSet
EndChar

StartChar: one
Encoding: 49 49 8
Width: 125
Flags: HMW
LayerCount: 2
Fore
SplineSet
50 750 m 1
 75 750 l 1
 75 0 l 1
 50 0 l 1
 50 725.899414062 l 1
 50 726 l 1
 50 750 l 1
EndSplineSet
EndChar

StartChar: two
Encoding: 50 50 9
Width: 332
Flags: HMW
LayerCount: 2
Fore
SplineSet
166 750 m 2
 166.079101562 750 l 2
 235.483398438 749.978515625 292 693.413085938 292 624 c 0
 292 612.7265625 290.5 601.795898438 287.705078125 591.388671875 c 2
 83 24 l 1
 292 24 l 1
 292 0 l 1
 40.80859375 0 l 1
 263.615234375 597.84375 l 2
 265.819335938 606.205078125 267 614.97265625 267 624 c 0
 267 679.900390625 221.973632812 725.9765625 166.083984375 726 c 2
 166 726 l 2
 110.071289062 726.0234375 65 679.928710938 65 624 c 1
 40 624 l 1
 40 693.439453125 96.560546875 750.021484375 166 750 c 2
EndSplineSet
EndChar

StartChar: three
Encoding: 51 51 10
Width: 336
Flags: HMW
LayerCount: 2
Fore
SplineSet
132.375 751.999023438 m 2
 189.4140625 751.999023438 l 2
 243.026367188 751.999023438 286.749023438 708.241210938 286.749023438 654.624023438 c 2
 286.749023438 460.375 l 2
 286.749023438 423.661132812 266.248046875 391.584960938 236.110351562 375 c 1
 266.248046875 358.4140625 286.749023438 326.337890625 286.749023438 289.625 c 2
 286.749023438 95.375 l 2
 286.749023438 41.765625 243.041015625 -2 189.439453125 -2 c 2
 132.375 -2 l 2
 78.744140625 -2.0009765625 35 41.744140625 35 95.375 c 1
 60 95.375 l 1
 60 55.2548828125 92.2548828125 22 132.375 22 c 2
 189.4296875 22 l 2
 229.5234375 22 261.749023438 55.2734375 261.749023438 95.375 c 2
 261.749023438 289.625 l 2
 261.749023438 329.744140625 229.494140625 363 189.374023438 363 c 2
 107.375 363 l 1
 107.375 387 l 1
 189.374023438 387 l 2
 229.494140625 387 261.749023438 420.254882812 261.749023438 460.375 c 2
 261.749023438 654.624023438 l 2
 261.749023438 694.727539062 229.520507812 727.999023438 189.423828125 727.999023438 c 2
 132.375 727.999023438 l 2
 92.2548828125 727.999023438 60 694.744140625 60 654.624023438 c 1
 35 654.624023438 l 1
 35 708.254882812 78.744140625 751.999023438 132.375 751.999023438 c 2
EndSplineSet
EndChar

StartChar: four
Encoding: 52 52 11
Width: 340
Flags: HMW
LayerCount: 2
Fore
SplineSet
57.375 750 m 1
 82.400390625 750 l 1
 65.08203125 353.271484375 l 2
 65.0361328125 352.185546875 65 351.096679688 65 350 c 0
 65 308.430664062 98.4306640625 274 140 274 c 2
 265 274 l 1
 265 750 l 1
 290 750 l 1
 290 0 l 1
 265 0 l 1
 265 250 l 1
 140 250 l 2
 84.919921875 250 40 294.919921875 40 350 c 0
 40 351.461914062 40.0390625 352.9140625 40.1015625 354.361328125 c 2
 57.375 750 l 1
EndSplineSet
EndChar

StartChar: five
Encoding: 53 53 12
Width: 368
Flags: HMW
LayerCount: 2
Fore
SplineSet
70 748 m 1
 293.818359375 748 l 1
 293.818359375 724 l 1
 93 724 l 1
 75 472.16796875 l 1
 99.8076171875 488.487304688 129.47265625 498.0078125 161.318359375 498 c 2
 161.396484375 498 l 2
 248.197265625 497.978515625 318.818359375 427.310546875 318.818359375 340.5 c 2
 318.818359375 155.5 l 2
 318.818359375 68.69921875 248.21484375 -1.970703125 161.427734375 -2 c 2
 161.318359375 -2 l 2
 117.900390625 -2.0146484375 78.5244140625 15.6650390625 50.00390625 44.185546875 c 1
 67.32421875 61.505859375 l 1
 91.302734375 37.1494140625 124.528320312 21.986328125 161.318359375 22 c 2
 161.416015625 22 l 2
 234.696289062 22.0263671875 293.818359375 82.20703125 293.818359375 155.5 c 2
 293.818359375 340.5 l 2
 293.818359375 413.807617188 234.673828125 473.985351562 161.373046875 474 c 2
 161.318359375 474 l 2
 128.310546875 474.006835938 98.1767578125 461.80078125 75.01171875 441.703125 c 1
 50 441.703125 l 1
 70 748 l 1
EndSplineSet
EndChar

StartChar: six
Encoding: 54 54 13
Width: 352
Flags: HMW
LayerCount: 2
Fore
SplineSet
212.5234375 752.408203125 m 1
 235.068359375 741.896484375 l 1
 115.5 486.5 l 1
 133.30078125 496.123046875 154.344726562 502.013671875 176 502 c 2
 176.16015625 502 l 2
 245.674804688 501.95703125 302 445.534179688 302 376 c 2
 302 124 l 2
 302 54.4658203125 245.674804688 -1.95703125 176.16015625 -2 c 2
 176 -2 l 2
 106.412109375 -2.04296875 50 54.412109375 50 124 c 2
 50 376 l 2
 50 396.205078125 54.765625 415.294921875 63.21875 432.220703125 c 2
 212.5234375 752.408203125 l 1
176 478 m 2
 120.219726562 478.032226562 75 431.78125 75 376 c 2
 75 124 l 2
 75 68.2197265625 120.219726562 21.9453125 176 22 c 2
 176.19921875 22 l 2
 231.888671875 22.0546875 277 68.2861328125 277 124 c 2
 277 376 l 2
 277 431.741210938 231.84375 477.967773438 176.1171875 478 c 2
 176 478 l 2
EndSplineSet
EndChar

StartChar: nine
Encoding: 57 57 14
Width: 352
Flags: HMW
LayerCount: 2
Fore
SplineSet
139.4765625 -2.421875 m 1
 116.931640625 8.08984375 l 1
 236.5 263.486328125 l 1
 218.69921875 253.86328125 197.655273438 247.97265625 176 247.986328125 c 2
 175.83984375 247.986328125 l 2
 106.325195312 248.029296875 50 304.452148438 50 373.986328125 c 2
 50 625.986328125 l 2
 50 695.520507812 106.325195312 751.943359375 175.83984375 751.986328125 c 2
 176 751.986328125 l 2
 245.587890625 752.029296875 302 695.57421875 302 625.986328125 c 2
 302 373.986328125 l 2
 302 353.78125 297.234375 334.69140625 288.78125 317.765625 c 2
 139.4765625 -2.421875 l 1
176 271.986328125 m 2
 231.780273438 271.954101562 277 318.205078125 277 373.986328125 c 2
 277 625.986328125 l 2
 277 681.766601562 231.780273438 728.041015625 176 727.986328125 c 2
 175.80078125 727.986328125 l 2
 120.111328125 727.930664062 75 681.700195312 75 625.986328125 c 2
 75 373.986328125 l 2
 75 318.245117188 120.15625 272.018554688 175.8828125 271.986328125 c 2
 176 271.986328125 l 2
EndSplineSet
EndChar

StartChar: seven
Encoding: 55 55 15
Width: 314
Flags: HMW
LayerCount: 2
Fore
SplineSet
30 750.000976562 m 1
 284 750.000976562 l 1
 68.412109375 -1.8466796875 l 1
 44.380859375 5.0439453125 l 1
 251.111328125 726.000976562 l 1
 30 726.000976562 l 1
 30 750.000976562 l 1
EndSplineSet
EndChar

StartChar: eight
Encoding: 56 56 16
Width: 354
Flags: HMW
LayerCount: 2
Fore
SplineSet
177 751.997070312 m 2
 177.486328125 751.997070312 l 2
 247.626953125 751.997070312 304.486328125 695.137695312 304.486328125 624.997070312 c 2
 304.486328125 489.997070312 l 2
 304.486328125 439.048828125 273.482421875 395.116210938 230.18359375 374.883789062 c 1
 273.220703125 354.55078125 304 310.755859375 304 259.999023438 c 2
 304 124.999023438 l 2
 304 54.8583984375 247.140625 -2.0009765625 177 -2.0009765625 c 2
 176.513671875 -2.0009765625 l 2
 106.563476562 -1.7333984375 49.9990234375 55.0478515625 50 124.999023438 c 2
 50 259.999023438 l 2
 50 310.932617188 80.9931640625 354.875976562 124.302734375 375.112304688 c 1
 81.255859375 395.450195312 50.486328125 439.254882812 50.486328125 489.997070312 c 2
 50.486328125 624.997070312 l 2
 50.4853515625 694.947265625 107.049804688 751.729492188 177 751.997070312 c 2
176.993164062 727.99609375 m 2
 120.88671875 727.860351562 75.486328125 681.165039062 75.486328125 624.997070312 c 2
 75.486328125 489.997070312 l 2
 75.486328125 433.826171875 120.889648438 387.1328125 176.999023438 386.998046875 c 2
 177.486328125 386.997070312 l 2
 233.819335938 386.862304688 279.486328125 433.6640625 279.486328125 489.997070312 c 2
 279.486328125 624.997070312 l 2
 279.486328125 681.330078125 233.819335938 728.133789062 177.486328125 727.997070312 c 2
 176.993164062 727.99609375 l 2
176.935546875 362.999023438 m 2
 120.631835938 362.962890625 75 316.310546875 75 259.999023438 c 2
 75 124.999023438 l 2
 75 68.666015625 120.666992188 21.919921875 177 21.9990234375 c 2
 177.286132812 21.9990234375 l 2
 233.48828125 22.078125 279 68.76171875 279 124.999023438 c 2
 279 259.999023438 l 2
 279 316.283203125 233.412109375 362.916015625 177.146484375 362.997070312 c 2
 176.935546875 362.999023438 l 2
EndSplineSet
EndChar

StartChar: R
Encoding: 82 82 17
Width: 314
Flags: HMW
LayerCount: 2
Fore
SplineSet
50 750 m 5
 163.130859375 750 l 6
 224.356445312 750 274.012695312 700.484375 274.25 639.314453125 c 6
 274.25 473.685546875 l 6
 274.030273438 417.126953125 231.560546875 370.53515625 176.76171875 363.83203125 c 5
 176.802734375 363.6796875 l 5
 274.25 0 l 5
 248.3671875 0 l 5
 151.1015625 363 l 5
 75 363 l 5
 75 0 l 5
 50 0 l 5
 50 750 l 5
75 726 m 5
 75 387 l 5
 170.466796875 387.322265625 l 6
 214.453125 391.126953125 249.025390625 428.78515625 249.25 473.685546875 c 6
 249.25 639.314453125 l 6
 249.012695312 686.68359375 210.549804688 726 163.130859375 726 c 6
 75 726 l 5
EndSplineSet
EndChar

StartChar: o
Encoding: 111 111 18
Width: 352
Flags: HMW
LayerCount: 2
Fore
SplineSet
176 502 m 6
 176.346679688 501.999023438 l 6
 245.775390625 501.90625 302 445.471679688 302 376 c 6
 302 124 l 6
 302 54.4677734375 245.678710938 -1.955078125 176.16796875 -2 c 6
 176 -2 l 6
 106.412109375 -2.0458984375 50 54.412109375 50 124 c 6
 50 376 l 6
 50 445.587890625 106.412109375 502.09375 176 502 c 6
176 478 m 6
 120.219726562 478.064453125 75 431.780273438 75 376 c 6
 75 124 l 6
 75 68.21875 120.219726562 21.962890625 176 22 c 6
 176.133789062 22 l 6
 231.852539062 22.037109375 277 68.263671875 277 124 c 6
 277 376 l 6
 277 431.702148438 231.908203125 477.934570312 176.235351562 478 c 6
 176 478 l 6
EndSplineSet
EndChar

StartChar: l
Encoding: 108 108 19
Width: 125
Flags: HMW
LayerCount: 2
Fore
SplineSet
50 750 m 1
 75 750 l 1
 75 24.0703125 l 1
 75 23.990234375 l 1
 75 0 l 1
 50 0 l 1
 50 23.99609375 l 1
 50 24.0556640625 l 1
 50 725.815429688 l 1
 50 726 l 1
 50 750 l 1
EndSplineSet
EndChar

StartChar: a
Encoding: 97 97 20
Width: 352
Flags: HMW
LayerCount: 2
Fore
SplineSet
176 502 m 6
 176.34765625 502 l 6
 217.54296875 501.944335938 254.088867188 481.051757812 277 450.37109375 c 5
 277 500 l 5
 302 500 l 5
 302 0 l 5
 277 0 l 5
 277 49.642578125 l 5
 254.055664062 18.9267578125 217.436523438 -1.9736328125 176.16796875 -2 c 6
 176 -2 l 6
 106.412109375 -2.0458984375 50 54.412109375 50 124 c 6
 50 376 l 6
 50 445.587890625 106.412109375 502.09375 176 502 c 6
176 478 m 6
 120.219726562 478.064453125 75 431.780273438 75 376 c 6
 75 124 l 6
 75 68.21875 120.219726562 21.962890625 176 22 c 6
 176.1328125 22 l 6
 231.852539062 22.037109375 277 68.263671875 277 124 c 6
 277 376 l 6
 277 431.702148438 231.907226562 477.935546875 176.234375 478 c 6
 176 478 l 6
EndSplineSet
EndChar

StartChar: n
Encoding: 110 110 21
Width: 352
Flags: HMW
LayerCount: 2
Fore
SplineSet
175.65234375 502 m 6
 176 502 l 6
 245.587890625 502.09375 302 445.587890625 302 376 c 6
 302 0 l 5
 277 0 l 5
 277 376 l 6
 277 431.780273438 231.780273438 478.064453125 176 478 c 6
 175.765625 478 l 6
 120.092773438 477.935546875 75 431.702148438 75 376 c 6
 75 0 l 5
 50 0 l 5
 50 500 l 5
 75 500 l 5
 75 450.37109375 l 5
 97.9111328125 481.051757812 134.45703125 501.944335938 175.65234375 502 c 6
EndSplineSet
EndChar

StartChar: r
Encoding: 114 114 22
Width: 205
Flags: HMW
LayerCount: 2
Fore
SplineSet
50 500 m 1
 75 500 l 1
 75 450.37109375 l 1
 97.865234375 480.990234375 134.309570312 501.8828125 175.404296875 501.999023438 c 2
 175.53515625 502 l 2
 175.57421875 502 175.61328125 502 175.65234375 502 c 1
 175.65234375 477.998046875 l 2
 175.62109375 477.998046875 175.590820312 477.998046875 175.559570312 477.998046875 c 2
 175.447265625 477.997070312 l 2
 119.920898438 477.788085938 75 431.595703125 75 376 c 2
 75 0 l 1
 50 0 l 1
 50 500 l 1
EndSplineSet
EndChar

StartChar: d
Encoding: 100 100 23
Width: 352
Flags: HMW
LayerCount: 2
Fore
SplineSet
176 502 m 6
 176.34765625 502 l 6
 217.54296875 501.944335938 254.088867188 481.051757812 277 450.37109375 c 5
 277 750 l 5
 302 750 l 5
 302 0 l 5
 277 0 l 5
 277 49.642578125 l 5
 254.055664062 18.9267578125 217.436523438 -1.97265625 176.16796875 -2 c 6
 176 -2 l 6
 106.412109375 -2.0458984375 50 54.412109375 50 124 c 6
 50 376 l 6
 50 445.587890625 106.412109375 502.09375 176 502 c 6
176 478 m 6
 120.219726562 478.064453125 75 431.780273438 75 376 c 6
 75 124 l 6
 75 68.21875 120.219726562 21.962890625 176 22 c 6
 176.1328125 22 l 6
 231.852539062 22.037109375 277 68.263671875 277 124 c 6
 277 376 l 6
 277 431.702148438 231.907226562 477.935546875 176.234375 478 c 6
 176 478 l 6
EndSplineSet
EndChar

StartChar: B
Encoding: 66 66 24
Width: 324
Flags: HMW
LayerCount: 2
Fore
SplineSet
50 750 m 5
 163.130859375 750 l 6
 224.356445312 750 274.012695312 700.484375 274.25 639.314453125 c 6
 274.25 473.685546875 l 6
 274.083007812 430.588867188 248.3828125 393.28515625 212.390625 375 c 5
 248.3828125 356.71484375 274.083007812 319.411132812 274.25 276.314453125 c 6
 274.25 110.685546875 l 6
 274.012695312 49.515625 224.356445312 0 163.130859375 0 c 6
 50 0 l 5
 50 750 l 5
75 726 m 5
 75 387 l 5
 170.466796875 387.322265625 l 6
 214.453125 391.126953125 249.025390625 428.78515625 249.25 473.685546875 c 6
 249.25 639.314453125 l 6
 249.012695312 686.68359375 210.549804688 726 163.130859375 726 c 6
 75 726 l 5
75 363 m 5
 75 24 l 5
 163.130859375 24 l 6
 210.549804688 24 249.012695312 63.31640625 249.25 110.685546875 c 6
 249.25 276.314453125 l 6
 249.025390625 321.21484375 214.453125 358.873046875 170.466796875 362.677734375 c 6
 75 363 l 5
EndSplineSet
EndChar

StartChar: b
Encoding: 98 98 25
Width: 352
Flags: HMW
LayerCount: 2
Fore
SplineSet
176 502 m 6
 245.587890625 502.09375 302 445.587890625 302 376 c 6
 302 124 l 6
 302 54.412109375 245.587890625 -2.0458984375 176 -2 c 6
 175.83203125 -2 l 6
 134.563476562 -1.97265625 97.9443359375 18.9267578125 75 49.642578125 c 5
 75 0 l 5
 50 0 l 5
 50 750 l 5
 75 750 l 5
 75 450.37109375 l 5
 97.9111328125 481.051757812 134.45703125 501.944335938 175.65234375 502 c 6
 176 502 l 6
176 478 m 6
 175.765625 478 l 6
 120.092773438 477.935546875 75 431.702148438 75 376 c 6
 75 124 l 6
 75 68.263671875 120.147460938 22.037109375 175.8671875 22 c 6
 176 22 l 6
 231.780273438 21.962890625 277 68.21875 277 124 c 6
 277 376 l 6
 277 431.780273438 231.780273438 478.064453125 176 478 c 6
EndSplineSet
EndChar

StartChar: c
Encoding: 99 99 26
Width: 295
Flags: HMW
LayerCount: 2
Fore
SplineSet
176 502 m 6
 176.34765625 502 l 6
 211.1015625 501.953125 242.543945312 487.787109375 265.28515625 464.9375 c 5
 247.845703125 447.498046875 l 5
 229.5859375 466.23828125 204.252929688 477.966796875 176.236328125 478 c 6
 176 478 l 6
 120.219726562 478.064453125 75 431.780273438 75 376 c 6
 75 124 l 6
 75 68.21875 120.219726562 21.962890625 176 22 c 6
 176.134765625 22 l 6
 204.143554688 22.0185546875 229.479492188 33.7109375 247.75390625 52.4140625 c 5
 265.1875 34.98046875 l 5
 242.415039062 12.1552734375 210.942382812 -1.9775390625 176.16796875 -2 c 6
 176 -2 l 6
 106.412109375 -2.0458984375 50 54.412109375 50 124 c 6
 50 376 l 6
 50 445.587890625 106.412109375 502.09375 176 502 c 6
EndSplineSet
EndChar

StartChar: f
Encoding: 102 102 27
Width: 160
Flags: HMW
LayerCount: 2
Fore
SplineSet
118.310546875 752 m 2
 130 752 l 1
 130 728 l 1
 118.397460938 728 l 2
 97.181640625 727.970703125 80 709.728515625 80 688.5 c 2
 80 500 l 1
 130 500 l 1
 130 476 l 1
 80 476 l 1
 80 0 l 1
 55 0 l 1
 55 476 l 1
 30 476 l 1
 30 500 l 1
 55 500 l 1
 55 688.5 l 2
 55 723.506835938 83.328125 751.999023438 118.310546875 752 c 2
EndSplineSet
EndChar

StartChar: g
Encoding: 103 103 28
Width: 352
Flags: HMW
LayerCount: 2
Fore
SplineSet
176 502 m 2
 176.16796875 502 l 2
 217.436523438 501.97265625 254.055664062 481.073242188 277 450.357421875 c 1
 277 500 l 1
 302 500 l 1
 302 -74 l 2
 302 -143.5234375 245.692382812 -199.947265625 176.193359375 -200 c 2
 176 -200 l 2
 106.412109375 -200.052734375 50 -143.587890625 50 -74 c 1
 75 -74 l 1
 75 -129.78125 120.219726562 -176.020507812 176 -176 c 2
 176.073242188 -176 l 2
 231.8203125 -175.979492188 277 -129.756835938 277 -74 c 2
 277 49.62890625 l 1
 254.088867188 18.9482421875 217.54296875 -1.9443359375 176.34765625 -2 c 2
 176 -2 l 2
 106.412109375 -2.09375 50 54.412109375 50 124 c 2
 50 376 l 2
 50 445.587890625 106.412109375 502.044921875 176 502 c 2
176 478 m 2
 120.219726562 478.037109375 75 431.780273438 75 376 c 2
 75 124 l 2
 75 68.21875 120.219726562 21.935546875 176 22 c 2
 176.234375 22 l 2
 231.907226562 22.064453125 277 68.2978515625 277 124 c 2
 277 376 l 2
 277 431.736328125 231.852539062 477.962890625 176.1328125 478 c 2
 176 478 l 2
EndSplineSet
EndChar

StartChar: h
Encoding: 104 104 29
Width: 352
Flags: HMW
LayerCount: 2
Fore
SplineSet
175.65234375 502 m 6
 176 502 l 6
 245.587890625 502.09375 302 445.587890625 302 376 c 6
 302 0 l 5
 277 0 l 5
 277 376 l 6
 277 431.780273438 231.78125 478.064453125 176 478 c 6
 175.765625 478 l 6
 120.09375 477.935546875 75 431.702148438 75 376 c 6
 75 0 l 5
 50 0 l 5
 50 750 l 5
 75 750 l 5
 75 450.37109375 l 5
 97.912109375 481.051757812 134.45703125 501.944335938 175.65234375 502 c 6
EndSplineSet
EndChar

StartChar: i
Encoding: 105 105 30
Width: 150
Flags: HMW
LayerCount: 2
Fore
SplineSet
62.5 500 m 1
 87.5 500 l 1
 87.5 24.0947265625 l 1
 87.5 23.986328125 l 1
 87.5 0 l 1
 62.5 0 l 1
 62.5 24.0029296875 l 1
 62.5 24.095703125 l 1
 62.5 475.334960938 l 1
 62.5 475.998046875 l 1
 62.5 500 l 1
100 625 m 0
 100 638.797851562 88.798828125 650 75 650 c 0
 61.203125 650 50 638.797851562 50 625 c 0
 50 611.202148438 61.203125 600 75 600 c 0
 88.798828125 600 100 611.202148438 100 625 c 0
EndSplineSet
EndChar

StartChar: j
Encoding: 106 106 31
Width: 187
Flags: HMW
LayerCount: 2
Fore
SplineSet
100 500 m 1
 125 500 l 1
 125 -125 l 2
 125 -166.392578125 91.46875 -199.9765625 50.0859375 -200 c 2
 50 -200 l 1
 50 -176 l 1
 50.126953125 -176 l 2
 77.68359375 -175.963867188 100 -152.571289062 100 -125 c 2
 100 475.333984375 l 1
 100 475.998046875 l 1
 100 500 l 1
137.495117188 625.000976562 m 0
 137.5 638.797851562 126.298828125 650 112.5 650 c 0
 98.703125 650 87.5 638.797851562 87.5 625 c 0
 87.5 611.202148438 98.703125 600 112.5 600 c 0
 126.298828125 600 137.495117188 611.203125 137.495117188 625.000976562 c 0
EndSplineSet
EndChar

StartChar: k
Encoding: 107 107 32
Width: 267
Flags: HMW
LayerCount: 2
Fore
SplineSet
50 750 m 1
 75 750 l 1
 75 236.142578125 l 1
 209.44140625 500 l 1
 237.5 500 l 1
 110.119140625 250 l 1
 237.5 0 l 1
 209.44140625 0 l 1
 96.08984375 222.466796875 l 1
 75 181.07421875 l 1
 75 0 l 1
 50 0 l 1
 50 750 l 1
EndSplineSet
EndChar

StartChar: m
Encoding: 109 109 33
Width: 579
Flags: HMW
LayerCount: 2
Fore
SplineSet
175.65234375 502 m 6
 176 502 l 6
 225.95703125 502.067382812 269.12109375 472.962890625 289.5 430.791015625 c 5
 309.87890625 472.962890625 353.04296875 502.067382812 403 502 c 6
 403.6953125 502 l 6
 473.283203125 502.09375 529.6953125 445.587890625 529.6953125 376 c 6
 529.6953125 0 l 5
 504.6953125 0 l 5
 504.6953125 376 l 6
 504.6953125 431.780273438 459.475585938 478.064453125 403.6953125 478 c 6
 403 478 l 6
 347.219726562 478.064453125 302 431.780273438 302 376 c 6
 302 0 l 5
 277 0 l 5
 277 376 l 6
 277 431.780273438 231.780273438 478.064453125 176 478 c 6
 175.765625 478 l 6
 120.092773438 477.935546875 75 431.702148438 75 376 c 6
 75 0 l 5
 50 0 l 5
 50 500 l 5
 75 500 l 5
 75 450.37109375 l 5
 97.9111328125 481.051757812 134.45703125 501.944335938 175.65234375 502 c 6
EndSplineSet
EndChar

StartChar: p
Encoding: 112 112 34
Width: 352
Flags: HMW
LayerCount: 2
Fore
SplineSet
176 -2 m 6
 175.65234375 -2 l 6
 134.45703125 -1.9443359375 97.9111328125 18.9482421875 75 49.62890625 c 5
 75 -200 l 5
 50 -200 l 5
 50 500 l 5
 75 500 l 5
 75 450.357421875 l 5
 97.9443359375 481.073242188 134.563476562 501.97265625 175.83203125 502 c 6
 176 502 l 6
 245.587890625 502.044921875 302 445.587890625 302 376 c 6
 302 124 l 6
 302 54.412109375 245.587890625 -2.09375 176 -2 c 6
176 22 m 6
 231.780273438 21.935546875 277 68.2197265625 277 124 c 6
 277 376 l 6
 277 431.78125 231.780273438 478.037109375 176 478 c 6
 175.8671875 478 l 6
 120.147460938 477.962890625 75 431.736328125 75 376 c 6
 75 124 l 6
 75 68.2978515625 120.092773438 22.064453125 175.765625 22 c 6
 176 22 l 6
EndSplineSet
EndChar

StartChar: q
Encoding: 113 113 35
Width: 352
Flags: HMW
LayerCount: 2
Fore
SplineSet
176 -2 m 6
 106.412109375 -2.09375 50 54.412109375 50 124 c 6
 50 376 l 6
 50 445.587890625 106.412109375 502.044921875 176 502 c 6
 176.16796875 502 l 6
 217.436523438 501.97265625 254.055664062 481.073242188 277 450.357421875 c 5
 277 500 l 5
 302 500 l 5
 302 -200 l 5
 277 -200 l 5
 277 49.62890625 l 5
 254.088867188 18.9482421875 217.54296875 -1.9443359375 176.34765625 -2 c 6
 176 -2 l 6
176 22 m 6
 176.234375 22 l 6
 231.907226562 22.064453125 277 68.2978515625 277 124 c 6
 277 376 l 6
 277 431.736328125 231.852539062 477.962890625 176.1328125 478 c 6
 176 478 l 6
 120.219726562 478.037109375 75 431.78125 75 376 c 6
 75 124 l 6
 75 68.2197265625 120.219726562 21.935546875 176 22 c 6
EndSplineSet
EndChar

StartChar: s
Encoding: 115 115 36
Width: 244
Flags: HMW
LayerCount: 2
Fore
SplineSet
122.25 502 m 6
 122.388671875 502 l 6
 162.080078125 502 194.5 469.458007812 194.5 429.75 c 5
 169.5 429.75 l 5
 169.5 455.95703125 148.551757812 478 122.358398438 478 c 6
 122.25 478 l 6
 96.0068359375 478 75 455.993164062 75 429.75 c 6
 75 310.25 l 6
 75 284.006835938 96.0068359375 262 122.25 262 c 6
 122.34765625 262 l 6
 162.057617188 262 194.5 229.471679688 194.5 189.75 c 6
 194.5 70.25 l 6
 194.5 30.5546875 162.1015625 -2 122.426757812 -2 c 6
 122.25 -2 l 6
 82.4951171875 -2 50 30.4951171875 50 70.25 c 5
 75 70.25 l 5
 75 44.0068359375 96.0068359375 22 122.25 22 c 6
 122.380859375 22 l 6
 148.563476562 22 169.5 44.0498046875 169.5 70.25 c 6
 169.5 189.75 l 6
 169.5 215.958984375 148.549804688 238 122.354492188 238 c 6
 122.25 238 l 6
 82.4951171875 238 50 270.495117188 50 310.25 c 6
 50 429.75 l 6
 50 469.504882812 82.4951171875 502 122.25 502 c 6
EndSplineSet
EndChar

StartChar: t
Encoding: 116 116 37
Width: 185
Flags: HMW
LayerCount: 2
Fore
SplineSet
80 750 m 5
 105 750 l 5
 105 500 l 5
 155 500 l 5
 155 476 l 5
 105 476 l 5
 105 0 l 5
 80 0 l 5
 80 476 l 5
 30 476 l 5
 30 500 l 5
 80 500 l 5
 80 750 l 5
EndSplineSet
EndChar

StartChar: u
Encoding: 117 117 38
Width: 352
Flags: HMW
LayerCount: 2
Fore
SplineSet
50 500 m 1
 75 500 l 1
 75 124 l 2
 75 68.2197265625 120.219726562 21.9619140625 176 22 c 2
 176.139648438 22 l 2
 231.856445312 22.0390625 277 68.265625 277 124 c 2
 277 500 l 1
 302 500 l 1
 302 124 l 2
 302 54.4619140625 245.668945312 -1.958984375 176.150390625 -2 c 2
 176 -2 l 2
 106.412109375 -2.041015625 50 54.412109375 50 124 c 2
 50 500 l 1
EndSplineSet
EndChar

StartChar: v
Encoding: 118 118 39
Width: 347
Flags: HMW
LayerCount: 2
Fore
SplineSet
30 500 m 1
 55.84375 500 l 1
 173.921875 49.3203125 l 1
 292 500 l 1
 317.84375 500 l 1
 174.04296875 -48.859375 l 1
 173.921875 -49.3203125 l 1
 30 500 l 1
EndSplineSet
EndChar

StartChar: w
Encoding: 119 119 40
Width: 1000
Flags: HM
LayerCount: 2
Fore
SplineSet
0 500 m 1
 25.84375 500 l 1
 143.921875 53.3203125 l 1
 262 510 l 1
 262.041992188 509.833007812 l 1
 380.078125 53.3203125 l 1
 498.15625 500 l 1
 524 500 l 1
 380.19921875 -48.859375 l 1
 380.078125 -49.3203125 l 1
 262 406.359375 l 1
 144.04296875 -48.859375 l 1
 143.921875 -49.3203125 l 1
 0 500 l 1
EndSplineSet
EndChar

StartChar: x
Encoding: 120 120 41
Width: 274
Flags: HMW
LayerCount: 2
Fore
SplineSet
30 500 m 5
 56.703125 500 l 5
 137.1015625 285.6015625 l 5
 217.5 500 l 5
 244.203125 500 l 5
 150.453125 250 l 5
 244.203125 0 l 5
 217.5 0 l 5
 137.1015625 214.3984375 l 5
 56.703125 0 l 5
 30 0 l 5
 123.75 250 l 5
 30 500 l 5
EndSplineSet
EndChar

StartChar: y
Encoding: 121 121 42
Width: 342
Flags: HMW
LayerCount: 2
Fore
SplineSet
30 500 m 5
 55.76953125 500 l 5
 165.41796875 61.40625 l 5
 286.349609375 500 l 5
 312.283203125 500 l 5
 119.2734375 -200 l 5
 93.33984375 -200 l 5
 151.90234375 12.390625 l 5
 30 500 l 5
EndSplineSet
EndChar

StartChar: z
Encoding: 122 122 43
Width: 294
Flags: HMW
LayerCount: 2
Fore
SplineSet
40.873046875 500 m 5
 259.24609375 500 l 5
 71.74609375 25 l 5
 253.373046875 25 l 5
 253.373046875 0 l 5
 35 0 l 5
 222.5 475 l 5
 40.873046875 475 l 5
 40.873046875 500 l 5
EndSplineSet
EndChar

StartChar: O
Encoding: 79 79 44
Width: 477
Flags: HMW
LayerCount: 2
Fore
SplineSet
238.5 752 m 2
 238.71484375 752 l 2
 342.57421875 751.94140625 427 667.385742188 427 563.5 c 2
 427 186.5 l 2
 427 82.615234375 342.577148438 -1.9404296875 238.719726562 -2 c 2
 238.5 -2 l 2
 134.541992188 -2.0595703125 50 82.5419921875 50 186.5 c 2
 50 563.5 l 2
 50 667.458007812 134.541992188 752.05859375 238.5 752 c 2
238.5 728 m 2
 148.053710938 728.0390625 75 653.946289062 75 563.5 c 2
 75 186.5 l 2
 75 96.0537109375 148.053710938 21.9453125 238.5 22 c 2
 238.701171875 22 l 2
 329.0546875 22.0546875 402 96.1201171875 402 186.5 c 2
 402 563.5 l 2
 402 653.899414062 329.0234375 727.9609375 238.642578125 728 c 2
 238.5 728 l 2
EndSplineSet
EndChar

StartChar: C
Encoding: 67 67 45
Width: 401
Flags: HMW
LayerCount: 2
Fore
SplineSet
238.5 752 m 2
 238.71484375 752 l 2
 290.614257812 751.970703125 337.66015625 730.840820312 371.744140625 696.744140625 c 1
 354.421875 679.421875 l 1
 324.864257812 709.366210938 283.939453125 727.98046875 238.642578125 728 c 2
 238.5 728 l 2
 148.053710938 728.0390625 75 653.946289062 75 563.5 c 2
 75 186.5 l 2
 75 96.0537109375 148.053710938 21.9453125 238.5 22 c 2
 238.701171875 22 l 2
 284.001953125 22.02734375 324.923828125 40.662109375 354.47265625 70.626953125 c 1
 371.79296875 53.306640625 l 1
 337.706054688 19.1806640625 290.641601562 -1.970703125 238.71875 -2 c 2
 238.5 -2 l 2
 134.541992188 -2.0595703125 50 82.5419921875 50 186.5 c 2
 50 563.5 l 2
 50 667.458007812 134.541992188 752.05859375 238.5 752 c 2
EndSplineSet
EndChar

StartChar: D
Encoding: 68 68 46
Width: 381
Flags: HMW
LayerCount: 2
Fore
SplineSet
50 750 m 1
 143.75 750 l 2
 247.155273438 750 331.25 665.905273438 331.25 562.5 c 2
 331.25 187.5 l 2
 331.25 84.0947265625 247.155273438 0 143.75 0 c 2
 50 0 l 1
 50 750 l 1
75 726 m 1
 75 24 l 1
 143.75 24 l 2
 233.64453125 24 306.25 97.60546875 306.25 187.5 c 2
 306.25 562.5 l 2
 306.25 652.39453125 233.64453125 726 143.75 726 c 2
 75 726 l 1
EndSplineSet
EndChar

StartChar: E
Encoding: 69 69 47
Width: 305
Flags: HMW
LayerCount: 2
Fore
SplineSet
50 750 m 5
 275 750 l 5
 275 725 l 5
 75 725 l 5
 75 387.5 l 5
 275 387.5 l 5
 275 362.5 l 5
 75 362.5 l 5
 75 25 l 5
 275 25 l 5
 275 0 l 5
 50 0 l 5
 50 750 l 5
EndSplineSet
EndChar

StartChar: F
Encoding: 70 70 48
Width: 305
Flags: HMW
LayerCount: 2
Fore
SplineSet
50 750 m 5
 275 750 l 5
 275 725 l 5
 75 725 l 5
 75 387.5 l 5
 275 387.5 l 5
 275 362.5 l 5
 75 362.5 l 5
 75 0 l 5
 50 0 l 5
 50 750 l 5
EndSplineSet
EndChar

StartChar: A
Encoding: 65 65 49
Width: 335
Flags: HMW
LayerCount: 2
Fore
SplineSet
155.341796875 750 m 1
 180.001953125 750 l 1
 305.34375 0 l 1
 280 0 l 1
 229.916015625 300.5 l 1
 105.427734375 300.5 l 1
 55.34375 0 l 1
 30 0 l 1
 155.341796875 750 l 1
167.671875 673.96484375 m 1
 109.427734375 324.5 l 1
 225.916015625 324.5 l 1
 167.671875 673.96484375 l 1
EndSplineSet
EndChar

StartChar: G
Encoding: 71 71 50
Width: 477
Flags: HMW
LayerCount: 2
Fore
SplineSet
238.5 752 m 6
 238.754882812 752 l 6
 342.595703125 751.930664062 427 667.372070312 427 563.5 c 5
 402 563.5 l 5
 402 653.874023438 329.063476562 727.940429688 238.717773438 728 c 6
 238.5 728 l 6
 148.053710938 728.059570312 75 653.946289062 75 563.5 c 6
 75 186.5 l 6
 75 96.0537109375 148.053710938 21.9267578125 238.5 22 c 6
 238.767578125 22 l 6
 329.090820312 22.0732421875 402 96.142578125 402 186.5 c 6
 402 363 l 5
 238.5 363 l 5
 238.5 387 l 5
 427 387 l 5
 427 186.5 l 6
 427 82.6201171875 342.583984375 -1.9365234375 238.732421875 -2 c 6
 238.5 -2 l 6
 134.541992188 -2.0634765625 50 82.5419921875 50 186.5 c 6
 50 563.5 l 6
 50 667.458007812 134.541992188 752.069335938 238.5 752 c 6
EndSplineSet
EndChar

StartChar: H
Encoding: 72 72 51
Width: 362
Flags: HMW
LayerCount: 2
Fore
SplineSet
50 750 m 5
 75 750 l 5
 75 387 l 5
 287.5 387 l 5
 287.5 750 l 5
 312.5 750 l 5
 312.5 0 l 5
 287.5 0 l 5
 287.5 363 l 5
 75 363 l 5
 75 0 l 5
 50 0 l 5
 50 750 l 5
EndSplineSet
EndChar

StartChar: I
Encoding: 73 73 52
Width: 125
Flags: HMW
LayerCount: 2
Fore
SplineSet
50 750 m 5
 75 750 l 5
 75 725.995117188 l 5
 75 725.904296875 l 5
 75 24.125 l 5
 75 24.0029296875 l 5
 75 0 l 5
 50 0 l 5
 50 24 l 5
 50 24.0849609375 l 5
 50 725.887695312 l 5
 50 725.982421875 l 5
 50 750 l 5
EndSplineSet
EndChar

StartChar: L
Encoding: 76 76 53
Width: 305
Flags: HMW
LayerCount: 2
Fore
SplineSet
50 750 m 5
 75 750 l 5
 75 25 l 5
 275 25 l 5
 275 0 l 5
 50 0 l 5
 50 750 l 5
EndSplineSet
EndChar

StartChar: T
Encoding: 84 84 54
Width: 310
Flags: HMW
LayerCount: 2
Fore
SplineSet
30 750 m 5
 280 750 l 5
 280 726 l 5
 167.5 726 l 5
 167.5 0 l 5
 142.5 0 l 5
 142.5 726 l 5
 30 726 l 5
 30 750 l 5
EndSplineSet
EndChar

StartChar: Y
Encoding: 89 89 55
Width: 340
Flags: HMW
LayerCount: 2
Fore
SplineSet
30 750 m 5
 56.400390625 750 l 5
 170.478515625 413.892578125 l 5
 284.556640625 750 l 5
 310.95703125 750 l 5
 182.978515625 372.935546875 l 5
 182.978515625 0 l 5
 157.978515625 0 l 5
 157.978515625 372.935546875 l 5
 30 750 l 5
EndSplineSet
EndChar

StartChar: P
Encoding: 80 80 56
Width: 324
Flags: HMW
LayerCount: 2
Fore
SplineSet
50 750 m 5
 163.130859375 750 l 6
 224.356445312 750 274.012695312 700.484375 274.25 639.314453125 c 6
 274.25 473.685546875 l 6
 274.012695312 412.515625 224.356445312 363 163.130859375 363 c 6
 75 363 l 5
 75 0 l 5
 50 0 l 5
 50 750 l 5
75 726 m 5
 75 387 l 5
 163.130859375 387 l 6
 210.549804688 387 249.012695312 426.31640625 249.25 473.685546875 c 6
 249.25 639.314453125 l 6
 249.012695312 686.68359375 210.549804688 726 163.130859375 726 c 6
 75 726 l 5
EndSplineSet
EndChar

StartChar: Z
Encoding: 90 90 57
Width: 332
Flags: HMW
LayerCount: 2
Fore
SplineSet
39.7265625 750 m 5
 302.51953125 750 l 5
 64.517578125 25 l 5
 291.259765625 25 l 5
 291.259765625 0 l 5
 30 0 l 5
 268 725 l 5
 39.7265625 725 l 5
 39.7265625 750 l 5
EndSplineSet
EndChar

StartChar: J
Encoding: 74 74 58
Width: 229
Flags: HMW
LayerCount: 2
Fore
SplineSet
154.31640625 750 m 1
 179.31640625 750 l 1
 179.31640625 85.5 l 2
 179.31640625 37.359375 140.052734375 -1.96875 91.92578125 -2 c 2
 91.81640625 -2 l 2
 67.7275390625 -2.015625 45.8525390625 7.8310546875 30 23.68359375 c 1
 47.32421875 41.0078125 l 1
 58.634765625 29.318359375 74.357421875 21.984375 91.81640625 22 c 2
 91.9306640625 22 l 2
 126.54296875 22.0302734375 154.31640625 50.8720703125 154.31640625 85.5 c 2
 154.31640625 750 l 1
EndSplineSet
EndChar

StartChar: K
Encoding: 75 75 59
Width: 330
Flags: HMW
LayerCount: 2
Fore
SplineSet
50 750 m 5
 75 750 l 5
 75 326.640625 l 5
 272.4140625 750 l 5
 300 750 l 5
 125.138671875 375.005859375 l 5
 300.005859375 0 l 5
 272.421875 0 l 5
 111.345703125 345.427734375 l 5
 75 267.484375 l 5
 75 0 l 5
 50 0 l 5
 50 750 l 5
EndSplineSet
EndChar

StartChar: V
Encoding: 86 86 60
Width: 335
Flags: HMW
LayerCount: 2
Fore
SplineSet
30 750 m 5
 55.34375 750 l 5
 167.671875 77.83203125 l 5
 280 750 l 5
 305.34375 750 l 5
 180 0 l 5
 155.34375 0 l 5
 30 750 l 5
EndSplineSet
EndChar

StartChar: W
Encoding: 87 87 61
Width: 584
Flags: HMW
LayerCount: 2
Fore
SplineSet
30 750 m 5
 55.34375 750 l 5
 167.671875 77.83203125 l 5
 280 750 l 5
 304.53515625 750 l 5
 416.86328125 77.83203125 l 5
 529.19140625 750 l 5
 554.53515625 750 l 5
 429.19140625 0 l 5
 404.53515625 0 l 5
 292.267578125 671.7578125 l 5
 180 0 l 5
 155.34375 0 l 5
 30 750 l 5
EndSplineSet
EndChar

StartChar: M
Encoding: 77 77 62
Width: 500
Flags: HMW
LayerCount: 2
Fore
SplineSet
50 750 m 1
 75.388671875 750 l 1
 245 54.41015625 l 5
 414.611328125 750 l 1
 440 750 l 1
 440 0 l 1
 415 0 l 1
 415 648.72265625 l 1
 257.125 0 l 5
 232.875 0 l 5
 75 648.72265625 l 1
 75 0 l 1
 50 0 l 1
 50 750 l 1
EndSplineSet
EndChar

StartChar: N
Encoding: 78 78 63
Width: 375
Flags: HMW
LayerCount: 2
Fore
SplineSet
50 750 m 5
 75.677734375 750 l 5
 300 77.03125 l 5
 300 750 l 5
 325 750 l 5
 325 0 l 5
 299.322265625 0 l 5
 75 672.96875 l 5
 75 0 l 5
 50 0 l 5
 50 750 l 5
EndSplineSet
EndChar

StartChar: U
Encoding: 85 85 64
Width: 400
Flags: HMW
LayerCount: 2
Fore
SplineSet
50 750 m 5
 75 750 l 5
 75 148 l 6
 75 78.81640625 130.81640625 21.96484375 200 22 c 6
 200.127929688 22 l 6
 269.252929688 22.03515625 325 78.859375 325 148 c 6
 325 750 l 5
 350 750 l 5
 350 148 l 6
 350 65.3603515625 282.784179688 -1.955078125 200.165039062 -2 c 6
 200 -2 l 6
 117.305664062 -2.044921875 50 65.3056640625 50 148 c 6
 50 750 l 5
EndSplineSet
EndChar

StartChar: S
Encoding: 83 83 65
Width: 319
Flags: HMW
LayerCount: 2
Fore
SplineSet
159.75 752 m 6
 159.935546875 752 l 6
 220.31640625 752 269.5 702.653320312 269.5 642.25 c 5
 244.5 642.25 l 5
 244.5 689.109375 206.856445312 728 160.033203125 728 c 6
 159.75 728 l 6
 112.795898438 728 75 689.204101562 75 642.25 c 6
 75 472.75 l 6
 75 425.795898438 112.795898438 387 159.75 387 c 6
 160.12109375 387 l 6
 220.5859375 387 269.87109375 337.71484375 269.87109375 277.25 c 6
 269.87109375 107.75 l 6
 269.87109375 47.3466796875 220.6875 -2 160.306640625 -2 c 6
 160.12109375 -2 l 6
 99.65625 -2 50.37109375 47.28515625 50.37109375 107.75 c 5
 75.37109375 107.75 l 5
 75.37109375 60.7958984375 113.166992188 22 160.12109375 22 c 6
 160.404296875 22 l 6
 207.227539062 22 244.87109375 60.890625 244.87109375 107.75 c 6
 244.87109375 277.25 l 6
 244.87109375 324.204101562 207.075195312 363 160.12109375 363 c 6
 159.75 363 l 6
 99.28515625 363 50 412.28515625 50 472.75 c 6
 50 642.25 l 6
 50 702.71484375 99.28515625 752 159.75 752 c 6
EndSplineSet
EndChar

StartChar: dollar
Encoding: 36 36 66
Width: 319
Flags: HMW
LayerCount: 2
Fore
SplineSet
147.435546875 800 m 1
 172.435546875 800 l 1
 172.435546875 751.279296875 l 1
 172.556640625 751.265625 l 2
 227.025390625 744.990234375 269.5 698.383789062 269.5 642.25 c 1
 244.5 642.25 l 1
 244.5 684.845703125 213.3984375 720.884765625 172.564453125 727.052734375 c 2
 172.435546875 727.072265625 l 1
 172.435546875 386.302734375 l 1
 172.540039062 386.291015625 l 2
 227.193359375 380.119140625 269.87109375 333.516601562 269.87109375 277.25 c 2
 269.87109375 107.75 l 2
 269.87109375 51.501953125 227.223632812 4.80859375 172.59375 -1.3046875 c 2
 172.435546875 -1.322265625 l 1
 172.435546875 -50 l 1
 147.435546875 -50 l 1
 147.435546875 -1.259765625 l 1
 147.307617188 -1.2451171875 l 2
 92.8427734375 5.099609375 50.37109375 51.619140625 50.37109375 107.75 c 1
 75.37109375 107.75 l 1
 75.37109375 65.1552734375 106.46875 29.244140625 147.301757812 22.9814453125 c 2
 147.435546875 22.9609375 l 1
 147.435546875 363.697265625 l 1
 147.341796875 363.708007812 l 2
 92.6826171875 369.877929688 50 416.479492188 50 472.75 c 2
 50 642.25 l 2
 50 698.51953125 92.681640625 745.12109375 147.338867188 751.291992188 c 2
 147.435546875 751.302734375 l 1
 147.435546875 800 l 1
147.435546875 727.091796875 m 1
 147.299804688 727.071289062 l 2
 106.286132812 720.96875 75 684.97265625 75 642.25 c 2
 75 472.75 l 2
 75 430.009765625 106.314453125 394.013671875 147.3515625 387.920898438 c 2
 147.435546875 387.908203125 l 1
 147.435546875 727.091796875 l 1
172.435546875 362.091796875 m 1
 172.435546875 22.875 l 1
 172.526367188 22.888671875 l 2
 213.560546875 28.88671875 244.87109375 65.01171875 244.87109375 107.75 c 2
 244.87109375 277.25 l 2
 244.87109375 319.987304688 213.561523438 355.983398438 172.52734375 362.078125 c 2
 172.435546875 362.091796875 l 1
EndSplineSet
EndChar

StartChar: percent
Encoding: 37 37 67
Width: 510
Flags: HMW
LayerCount: 2
Fore
SplineSet
368.1484375 751.97265625 m 1
 391.8515625 744.02734375 l 1
 141.8515625 -1.97265625 l 1
 118.1484375 5.97265625 l 1
 368.1484375 751.97265625 l 1
165 752 m 0
 220.080078125 752 265 707.080078125 265 652 c 0
 265 596.919921875 220.080078125 552 165 552 c 0
 109.919921875 552 65 596.919921875 65 652 c 0
 65 707.080078125 109.919921875 752 165 752 c 0
165 728 m 0
 123.430664062 728 90 693.569335938 90 652 c 0
 90 610.430664062 123.430664062 576 165 576 c 0
 206.569335938 576 240 610.430664062 240 652 c 0
 240 693.569335938 206.569335938 728 165 728 c 0
345 198 m 0
 400.080078125 198 445 153.080078125 445 98 c 0
 445 42.919921875 400.080078125 -2 345 -2 c 0
 289.919921875 -2 245 42.919921875 245 98 c 0
 245 153.080078125 289.919921875 198 345 198 c 0
345 174 m 0
 303.430664062 174 270 139.569335938 270 98 c 0
 270 56.4306640625 303.430664062 22 345 22 c 0
 386.569335938 22 420 56.4306640625 420 98 c 0
 420 139.569335938 386.569335938 174 345 174 c 0
EndSplineSet
EndChar

StartChar: ampersand
Encoding: 38 38 68
Width: 387
Flags: HMW
LayerCount: 2
Fore
SplineSet
166.5 752 m 2
 166.62109375 752 l 2
 207.838867188 752 241.5 718.233398438 241.5 677 c 1
 216.5 677 l 1
 216.5 704.713867188 194.33984375 728 166.64453125 728 c 2
 166.5 728 l 2
 138.737304688 728 116.5 704.762695312 116.5 677 c 2
 116.5 625 l 2
 116.5 619.016601562 117.5390625 613.247070312 119.4375 607.87109375 c 2
 286.173828125 149.892578125 l 1
 304.05859375 216.640625 l 1
 328.20703125 210.169921875 l 1
 301.091796875 108.9140625 l 1
 337.578125 8.6953125 l 1
 314.08984375 0.146484375 l 1
 289.16015625 68.65625 l 1
 268.641601562 26.900390625 225.682617188 -2 176.143554688 -2 c 2
 176 -2 l 2
 106.560546875 -2 50 54.560546875 50 124 c 2
 50 376 l 2
 50 430.752929688 85.169921875 477.482421875 134.0859375 494.806640625 c 1
 96.041015625 599.35546875 l 2
 93.1064453125 607.364257812 91.5 616.002929688 91.5 625 c 2
 91.5 677 l 2
 91.5 718.2734375 125.2265625 752 166.5 752 c 2
142.330078125 472.1484375 m 1
 103.043945312 458.067382812 74.3974609375 420.10546875 75 376 c 2
 75 124 l 2
 75 68.0712890625 120.071289062 22 176 22 c 2
 176.134765625 22 l 2
 225.96875 22 267.15234375 58.7080078125 275.466796875 106.28515625 c 1
 142.330078125 472.1484375 l 1
EndSplineSet
EndChar

StartChar: quotesingle
Encoding: 39 39 69
Width: 101
Flags: HMW
LayerCount: 2
Fore
SplineSet
38 550 m 1
 38 750 l 1
 63 750 l 1
 63 550 l 1
 38 550 l 1
EndSplineSet
EndChar

StartChar: parenleft
Encoding: 40 40 70
Width: 176
Flags: HMW
LayerCount: 2
Fore
SplineSet
104.46484375 800 m 1
 127.78125 791.751953125 l 1
 122.291015625 776.157226562 117.100585938 760.454101562 112.213867188 744.649414062 c 0
 74.630859375 623.100585938 55 495.62109375 55 366.404296875 c 0
 55 217.154296875 81.17578125 70.2197265625 130.970703125 -67.931640625 c 0
 136.05859375 -82.0439453125 141.391601562 -96.0654296875 146.96875 -109.98828125 c 1
 124.1171875 -119.189453125 l 1
 118.383789062 -104.951171875 112.901367188 -90.611328125 107.674804688 -76.17578125 c 0
 56.765625 64.408203125 30 214.025390625 30 366.404296875 c 0
 30 499.379882812 50.390625 630.25 89.4130859375 754.8515625 c 0
 94.15625 769.99609375 99.1748046875 785.047851562 104.46484375 800 c 1
EndSplineSet
EndChar

StartChar: parenright
Encoding: 41 41 71
Width: 176
Flags: HMW
LayerCount: 2
Fore
SplineSet
72.50390625 800 m 1
 49.1875 791.751953125 l 1
 54.677734375 776.157226562 59.8681640625 760.454101562 64.7548828125 744.649414062 c 0
 102.337890625 623.100585938 121.96875 495.62109375 121.96875 366.404296875 c 0
 121.96875 217.154296875 95.79296875 70.2197265625 45.998046875 -67.931640625 c 0
 40.91015625 -82.0439453125 35.5771484375 -96.0654296875 30 -109.98828125 c 1
 52.8515625 -119.189453125 l 1
 58.5849609375 -104.951171875 64.0673828125 -90.611328125 69.2939453125 -76.17578125 c 0
 120.203125 64.408203125 146.96875 214.025390625 146.96875 366.404296875 c 0
 146.96875 499.379882812 126.578125 630.25 87.5556640625 754.8515625 c 0
 82.8125 769.99609375 77.7939453125 785.047851562 72.50390625 800 c 1
EndSplineSet
EndChar

StartChar: asterisk
Encoding: 42 42 72
Width: 353
Flags: HMW
LayerCount: 2
Fore
SplineSet
164.021484375 750 m 5
 189.021484375 750 l 5
 189.021484375 617.205078125 l 5
 315.31640625 658.240234375 l 5
 323.04296875 634.46484375 l 5
 196.748046875 593.427734375 l 5
 274.802734375 485.994140625 l 5
 254.576171875 471.30078125 l 5
 176.521484375 578.732421875 l 5
 98.466796875 471.30078125 l 5
 78.240234375 485.994140625 l 5
 156.294921875 593.427734375 l 5
 30 634.46484375 l 5
 37.7265625 658.240234375 l 5
 164.021484375 617.205078125 l 5
 164.021484375 750 l 5
EndSplineSet
EndChar

StartChar: plus
Encoding: 43 43 73
Width: 360
Flags: HMW
LayerCount: 2
Fore
SplineSet
168 525 m 1
 192 525 l 1
 192 387 l 1
 330 387 l 5
 330 363 l 1
 192 363 l 1
 192 225 l 1
 168 225 l 1
 168 363 l 1
 30 363 l 1
 30 387 l 1
 168 387 l 1
 168 525 l 1
EndSplineSet
EndChar

StartChar: comma
Encoding: 44 44 74
Width: 110
Flags: HMW
LayerCount: 2
Fore
SplineSet
30.65234375 23.0458984375 m 4
 30.65234375 36.7880859375 41.7431640625 47.9541015625 55.6015625 48 c 4
 69.458984375 48.0458984375 80.65234375 36.853515625 80.65234375 23.0458984375 c 4
 80.65234375 20.1298828125 80.1416015625 17.2353515625 79.14453125 14.4951171875 c 6
 53.4921875 -55.9814453125 l 5
 30 -47.4306640625 l 5
 47.1015625 -0.4462890625 l 5
 37.2255859375 3.1484375 30.65234375 12.5361328125 30.65234375 23.0458984375 c 4
EndSplineSet
EndChar

StartChar: period
Encoding: 46 46 75
Width: 110
Flags: HMW
LayerCount: 2
Fore
SplineSet
80 23 m 4
 80 9.2021484375 68.7978515625 -2 55 -2 c 4
 41.2021484375 -2 30 9.2021484375 30 23 c 4
 30 36.7978515625 41.2021484375 48 55 48 c 4
 68.7978515625 48 80 36.7978515625 80 23 c 4
EndSplineSet
EndChar

StartChar: hyphen
Encoding: 45 45 76
Width: 235
Flags: HMW
LayerCount: 2
Fore
SplineSet
30 387 m 5
 205 387 l 5
 205 363 l 5
 30 363 l 5
 30 387 l 5
EndSplineSet
EndChar

StartChar: slash
Encoding: 47 47 77
Width: 210
Flags: HMW
LayerCount: 2
Fore
SplineSet
155 750 m 5
 180.34375 750 l 5
 55.34375 0 l 5
 30 0 l 5
 155 750 l 5
EndSplineSet
EndChar

StartChar: colon
Encoding: 58 58 78
Width: 110
Flags: HMW
LayerCount: 2
Fore
SplineSet
80 23 m 4
 80 9.2021484375 68.7978515625 -2 55 -2 c 4
 41.2021484375 -2 30 9.2021484375 30 23 c 4
 30 36.7978515625 41.2021484375 48 55 48 c 4
 68.7978515625 48 80 36.7978515625 80 23 c 4
80 477 m 4
 80 463.202148438 68.7978515625 452 55 452 c 4
 41.2021484375 452 30 463.202148438 30 477 c 4
 30 490.797851562 41.2021484375 502 55 502 c 4
 68.7978515625 502 80 490.797851562 80 477 c 4
EndSplineSet
EndChar

StartChar: semicolon
Encoding: 59 59 79
Width: 110
Flags: HMW
LayerCount: 2
Fore
SplineSet
80.65234375 477.045898438 m 0
 80.65234375 463.248046875 69.4501953125 452.045898438 55.65234375 452.045898438 c 0
 41.8544921875 452.045898438 30.65234375 463.248046875 30.65234375 477.045898438 c 0
 30.65234375 490.84375 41.8544921875 502.045898438 55.65234375 502.045898438 c 0
 69.4501953125 502.045898438 80.65234375 490.84375 80.65234375 477.045898438 c 0
30.65234375 23.0458984375 m 0
 30.65234375 36.7880859375 41.7431640625 47.953125 55.6015625 48 c 0
 69.458984375 48.0458984375 80.65234375 36.8525390625 80.65234375 23.0458984375 c 0
 80.65234375 20.1298828125 80.1416015625 17.2353515625 79.14453125 14.4951171875 c 2
 53.4921875 -55.9814453125 l 1
 30 -47.4306640625 l 1
 47.1015625 -0.4462890625 l 1
 37.2255859375 3.1484375 30.65234375 12.5361328125 30.65234375 23.0458984375 c 0
EndSplineSet
EndChar

StartChar: less
Encoding: 60 60 81
Width: 265
Flags: HMW
LayerCount: 2
Fore
SplineSet
217.5 583 m 5
 235.0078125 566.5859375 l 5
 55.203125 374.79296875 l 5
 235.0078125 183 l 5
 217.5 166.5859375 l 5
 30 366.5859375 l 5
 30 383 l 5
 217.5 583 l 5
EndSplineSet
EndChar

StartChar: greater
Encoding: 62 62 82
Width: 265
Flags: HMW
LayerCount: 2
Fore
SplineSet
47.5078125 583 m 5
 30 566.5859375 l 5
 209.8046875 374.79296875 l 5
 30 183 l 5
 47.5078125 166.5859375 l 5
 235.0078125 366.5859375 l 5
 235.0078125 383 l 5
 47.5078125 583 l 5
EndSplineSet
EndChar

StartChar: equal
Encoding: 61 61 83
Width: 260
Flags: HMW
LayerCount: 2
Fore
SplineSet
30 462 m 1
 230 462 l 1
 230 438 l 1
 30 438 l 1
 30 462 l 1
30 313 m 1
 230 313 l 1
 230 289 l 1
 30 289 l 1
 30 313 l 1
EndSplineSet
EndChar

StartChar: question
Encoding: 63 63 84
Width: 300
Flags: HMW
LayerCount: 2
Fore
SplineSet
150 752 m 6
 150.151367188 752 l 6
 205.163085938 752 250 707.030273438 250 652 c 6
 250 464.61328125 l 6
 250 427.76171875 229.900390625 395.442382812 200.084960938 378.116210938 c 6
 199.9765625 378.052734375 l 6
 177.720703125 364.780273438 162.82421875 340.23828125 162.82421875 312.5 c 6
 162.82421875 175 l 5
 137.82421875 175 l 5
 137.82421875 312.5 l 6
 137.82421875 349.396484375 157.983398438 381.73046875 187.84765625 399.060546875 c 6
 187.97265625 399.135742188 l 6
 210.171875 412.403320312 225 436.927734375 225 464.61328125 c 6
 225 652 l 6
 225 693.534179688 191.625 728 150.104492188 728 c 6
 150 728 l 6
 108.430664062 728 75 693.569335938 75 652 c 5
 50 652 l 5
 50 707.080078125 94.919921875 752 150 752 c 6
125 23 m 4
 125 36.7978515625 136.202148438 48 150 48 c 4
 163.797851562 48 175 36.7978515625 175 23 c 4
 175 9.2021484375 163.797851562 -2 150 -2 c 4
 136.202148438 -2 125 9.2021484375 125 23 c 4
EndSplineSet
EndChar

StartChar: at
Encoding: 64 64 85
Width: 527
Flags: HMW
LayerCount: 2
Fore
SplineSet
263.5 762 m 2
 263.688476562 762 l 2
 323.404296875 762 377.442382812 737.33203125 416.189453125 697.651367188 c 0
 453.798828125 659.134765625 477 606.474609375 477 548.5 c 2
 477 135 l 2
 477 96.521484375 445.567382812 65 407.1015625 65 c 2
 407 65 l 2
 368.48828125 65 337 96.48828125 337 135 c 2
 337 167.6015625 l 1
 318.489257812 146.446289062 291.326171875 133 261.125976562 133 c 2
 261 133 l 2
 205.3671875 133 160 178.3671875 160 234 c 2
 160 436 l 2
 160 491.6328125 205.3671875 537 261 537 c 2
 261.194335938 537 l 2
 291.368164062 537 318.502929688 523.538085938 337 502.3984375 c 1
 337 535 l 1
 362 535 l 1
 362 135 l 2
 362 109.999023438 381.999023438 89 407 89 c 2
 407.125976562 89 l 2
 432.068359375 89 452 110.041015625 452 135 c 2
 452 548.5 l 2
 452 601.170898438 430.497070312 649.009765625 395.7734375 683.444335938 c 0
 361.798828125 717.138671875 315.166992188 738 263.638671875 738 c 2
 263.5 738 l 2
 211.05859375 738 163.6796875 716.430664062 129.5390625 681.721679688 c 0
 95.8076171875 647.4296875 75 600.3125 75 548.5 c 2
 75 121.5 l 2
 75 69.5478515625 95.9208984375 22.3154296875 129.8125 -12 c 0
 163.932617188 -46.5458984375 211.198242188 -68 263.5 -68 c 1
 263.5 -92 l 1
 205.630859375 -92 153.081054688 -68.8828125 114.596679688 -31.39453125 c 0
 74.7646484375 7.4072265625 50 61.6044921875 50 121.5 c 2
 50 548.5 l 2
 50 606.501953125 73.2236328125 659.16015625 110.865234375 697.668945312 c 0
 149.6484375 737.345703125 203.737304688 762 263.5 762 c 2
261 513 m 2
 218.877929688 513 185 478.122070312 185 436 c 2
 185 234 l 2
 185 191.877929688 218.877929688 157 261 157 c 2
 261.15234375 157 l 2
 303.203125 157 337 191.928710938 337 234 c 2
 337 436 l 2
 337 478.078125 303.19140625 513 261.130859375 513 c 2
 261 513 l 2
EndSplineSet
EndChar

StartChar: backslash
Encoding: 92 92 86
Width: 210
Flags: HMW
LayerCount: 2
Fore
SplineSet
55.34375 750 m 5
 30 750 l 5
 155 0 l 5
 180.34375 0 l 5
 55.34375 750 l 5
EndSplineSet
EndChar

StartChar: bracketleft
Encoding: 91 91 87
Width: 160
Flags: HMW
LayerCount: 2
Fore
SplineSet
30 800 m 1
 130 800 l 1
 130 776 l 1
 55 776 l 1
 55 -101 l 1
 130 -101 l 1
 130 -125 l 1
 30 -125 l 1
 30 800 l 1
EndSplineSet
EndChar

StartChar: bracketright
Encoding: 93 93 88
Width: 160
Flags: HMW
LayerCount: 2
Fore
SplineSet
130 800 m 1
 30 800 l 1
 30 776 l 1
 105 776 l 1
 105 -101 l 1
 30 -101 l 1
 30 -125 l 1
 130 -125 l 1
 130 800 l 1
EndSplineSet
EndChar

StartChar: asciicircum
Encoding: 94 94 89
Width: 274
Flags: HMW
LayerCount: 2
Fore
SplineSet
125.443359375 750 m 5
 148.802734375 750 l 5
 244.24609375 500 l 5
 217.49609375 500 l 5
 137.123046875 710.900390625 l 5
 56.75 500 l 5
 30 500 l 5
 125.443359375 750 l 5
EndSplineSet
EndChar

StartChar: underscore
Encoding: 95 95 90
Width: 260
Flags: HMW
LayerCount: 2
Fore
SplineSet
30 -25 m 5
 230 -25 l 5
 230 -49 l 5
 30 -49 l 5
 30 -25 l 5
EndSplineSet
EndChar

StartChar: grave
Encoding: 96 96 91
Width: 154
Flags: HMW
LayerCount: 2
Fore
SplineSet
30 750 m 1
 58.8671875 750 l 1
 124.3359375 600 l 1
 105.46875 600 l 1
 30 750 l 1
EndSplineSet
EndChar

StartChar: bar
Encoding: 124 124 92
Width: 125
Flags: HW
LayerCount: 2
Fore
SplineSet
50 800 m 1
 75 800 l 1
 75 -125 l 1
 50 -125 l 1
 50 800 l 1
EndSplineSet
EndChar

StartChar: braceleft
Encoding: 123 123 93
Width: 135
Flags: HW
LayerCount: 2
Fore
SplineSet
115 800 m 1
 115 776 l 1
 97.044921875 776 80 765.955078125 80 750 c 2
 80 375.5 l 2
 80 360.341796875 68.1279296875 346.6953125 57.359375 337.5 c 1
 68.1279296875 328.3046875 80 314.658203125 80 299.5 c 2
 80 -75 l 2
 80 -92.955078125 97.044921875 -101 115 -101 c 1
 115 -125 l 1
 85.5341796875 -125 55 -104.465820312 55 -75 c 2
 55 299.5 l 2
 55 315.455078125 37.955078125 325.5 20 325.5 c 1
 20 349.5 l 1
 37.955078125 349.5 55 359.544921875 55 375.5 c 2
 55 750 l 2
 55 779.465820312 83.5341796875 800 115 800 c 1
EndSplineSet
EndChar

StartChar: braceright
Encoding: 125 125 94
Width: 135
Flags: HW
LayerCount: 2
Fore
SplineSet
20 800 m 5
 20 776 l 5
 37.955078125 776 55 765.955078125 55 750 c 6
 55 375.5 l 6
 55 360.341796875 66.8720703125 346.6953125 77.640625 337.5 c 5
 66.8720703125 328.3046875 55 314.658203125 55 299.5 c 6
 55 -75 l 6
 55 -92.955078125 37.955078125 -101 20 -101 c 5
 20 -125 l 5
 49.4658203125 -125 80 -104.465820312 80 -75 c 6
 80 299.5 l 6
 80 315.455078125 97.044921875 325.5 115 325.5 c 5
 115 349.5 l 5
 97.044921875 349.5 80 359.544921875 80 375.5 c 6
 80 750 l 6
 80 779.465820312 51.4658203125 800 20 800 c 5
EndSplineSet
EndChar

StartChar: asciitilde
Encoding: 126 126 95
Width: 254
Flags: HW
LayerCount: 2
Fore
SplineSet
80.470703125 402.021484375 m 0
 101.029296875 403.819335938 120.44140625 397.052734375 135.165039062 384.698242188 c 0
 145 376.095703125 158.063476562 371.293945312 172.017578125 372.514648438 c 0
 185.971679688 373.735351562 198.002929688 380.732421875 206.194335938 390.913085938 c 1
 224.96484375 375.163085938 l 1
 212.610351562 360.439453125 194.66796875 350.404296875 174.109375 348.60546875 c 0
 153.55078125 346.807617188 134.138671875 353.57421875 119.415039062 365.928710938 c 0
 109.580078125 374.53125 96.5166015625 379.333007812 82.5625 378.112304688 c 0
 68.6083984375 376.891601562 56.5771484375 369.89453125 48.3857421875 359.713867188 c 1
 29.615234375 375.463867188 l 1
 41.9697265625 390.1875 59.912109375 400.22265625 80.470703125 402.021484375 c 0
EndSplineSet
EndChar

StartChar: exclamdown
Encoding: 161 161 96
Width: 150
Flags: HW
LayerCount: 2
Fore
SplineSet
62.5 425 m 5
 62.5 -150 l 5
 87.5 -150 l 5
 87.5 425 l 5
 62.5 425 l 5
50 577 m 4
 50 563.193359375 61.193359375 552 75 552 c 4
 88.806640625 552 100 563.193359375 100 577 c 4
 100 590.806640625 88.806640625 602 75 602 c 4
 61.193359375 602 50 590.806640625 50 577 c 4
EndSplineSet
EndChar

StartChar: questiondown
Encoding: 191 191 97
Width: 300
Flags: HW
LayerCount: 2
Fore
SplineSet
150 -152 m 2
 149.848632812 -152 l 2
 94.8369140625 -152 50 -107.030273438 50 -52 c 2
 50 135.38671875 l 2
 50 172.23828125 70.099609375 204.557617188 99.9150390625 221.883789062 c 2
 100.0234375 221.947265625 l 2
 122.279296875 235.219726562 137.17578125 259.76171875 137.17578125 287.5 c 2
 137.17578125 425 l 1
 162.17578125 425 l 1
 162.17578125 287.5 l 2
 162.17578125 250.603515625 142.016601562 218.26953125 112.15234375 200.939453125 c 2
 112.02734375 200.864257812 l 2
 89.828125 187.596679688 75 163.072265625 75 135.38671875 c 2
 75 -52 l 2
 75 -93.5341796875 108.375 -128 149.895507812 -128 c 2
 150 -128 l 2
 191.569335938 -128 225 -93.5693359375 225 -52 c 1
 250 -52 l 1
 250 -107.080078125 205.080078125 -152 150 -152 c 2
175 577 m 0
 175 563.202148438 163.797851562 552 150 552 c 0
 136.202148438 552 125 563.202148438 125 577 c 0
 125 590.797851562 136.202148438 602 150 602 c 0
 163.797851562 602 175 590.797851562 175 577 c 0
EndSplineSet
EndChar

StartChar: uni00AD
Encoding: 173 173 98
Width: 210
Flags: HW
LayerCount: 2
Fore
SplineSet
30 387 m 1
 180 387 l 1
 180 363 l 1
 30 363 l 1
 30 387 l 1
EndSplineSet
EndChar

StartChar: brokenbar
Encoding: 166 166 99
Width: 125
Flags: HW
LayerCount: 2
Fore
SplineSet
50 800 m 1
 75 800 l 1
 75 412.5 l 1
 50 412.5 l 1
 50 800 l 1
50 262.5 m 1
 75 262.5 l 1
 75 -125 l 1
 50 -125 l 1
 50 262.5 l 1
EndSplineSet
EndChar

StartChar: cent
Encoding: 162 162 100
Width: 295
Flags: HW
LayerCount: 2
Fore
SplineSet
153.84765625 690 m 1
 178.84765625 690 l 1
 178.84765625 589.365234375 l 1
 178.946289062 589.35546875 l 2
 208.666992188 586.365234375 235.327148438 572.991210938 255.28515625 552.9375 c 1
 237.845703125 535.498046875 l 1
 222.395507812 551.35546875 201.880859375 562.203125 178.958984375 565.168945312 c 2
 178.84765625 565.18359375 l 1
 178.84765625 110.822265625 l 1
 179.002929688 110.842773438 l 2
 201.862304688 113.813476562 222.32421875 124.623046875 237.75390625 140.4140625 c 1
 255.1875 122.98046875 l 1
 235.250976562 102.998046875 208.646484375 89.6630859375 178.994140625 86.6572265625 c 2
 178.84765625 86.642578125 l 1
 178.84765625 -14 l 1
 153.84765625 -14 l 1
 153.84765625 86.578125 l 1
 153.732421875 86.5888671875 l 2
 89.8994140625 92.6953125 40 146.551757812 40 212 c 2
 40 464 l 2
 40 529.446289062 89.896484375 583.346679688 153.727539062 589.41796875 c 2
 153.84765625 589.4296875 l 1
 153.84765625 690 l 1
153.84765625 565.265625 m 1
 153.724609375 565.250976562 l 2
 103.73046875 559.138671875 65 515.625 65 464 c 2
 65 212 l 2
 65 160.37109375 103.736328125 116.881835938 153.735351562 110.75390625 c 2
 153.84765625 110.740234375 l 1
 153.84765625 565.265625 l 1
EndSplineSet
EndChar

StartChar: sterling
Encoding: 163 163 101
Width: 325
Flags: HW
LayerCount: 2
Fore
SplineSet
140 752 m 6
 140.146484375 752 l 6
 186.219726562 752 225.150390625 720.45703125 236.58984375 677.880859375 c 5
 212.490234375 671.423828125 l 5
 204.013671875 703.74609375 174.942382812 728 140.126953125 728 c 6
 140 728 l 6
 98.4306640625 728 65 693.569335938 65 652 c 6
 65 444.30078125 l 6
 65 418.870117188 77.525390625 396.127929688 96.7578125 382.2890625 c 4
 109.0703125 373.763671875 119.383789062 362.544921875 126.849609375 349.5 c 5
 190 349.5 l 5
 190 325.5 l 5
 136.689453125 325.5 l 5
 138.842773438 317.352539062 140 308.807617188 140 300 c 6
 140 100 l 6
 140 69.63671875 126.345703125 42.365234375 104.8671875 24 c 5
 215 24 l 6
 235.911132812 24 254.7578125 32.71875 268.330078125 46.669921875 c 5
 285.654296875 29.345703125 l 5
 267.5390625 11.23046875 242.540039062 0 215 0 c 6
 40 0 l 5
 40 24 l 5
 81.5693359375 24 115 58.4306640625 115 100 c 6
 115 300 l 6
 115 308.918945312 113.458984375 317.5078125 110.630859375 325.5 c 5
 40 325.5 l 5
 40 349.5 l 5
 96.8125 349.5 l 5
 92.603515625 354.45703125 87.7802734375 358.870117188 82.451171875 362.599609375 c 4
 56.8017578125 380.734375 40 410.616210938 40 444.30078125 c 6
 40 652 l 6
 40 707.080078125 84.919921875 752 140 752 c 6
EndSplineSet
EndChar

StartChar: currency
Encoding: 164 164 102
Width: 332
Flags: HW
LayerCount: 2
Fore
SplineSet
57.677734375 576 m 1
 95.884765625 537.79296875 l 1
 115.142578125 553.211914062 139.543945312 562.453125 166.046875 562.453125 c 2
 166.133789062 562.453125 l 2
 192.603515625 562.453125 216.97265625 553.194335938 236.208984375 537.79296875 c 1
 274.416015625 576 l 1
 292.09375 558.322265625 l 1
 253.88671875 520.115234375 l 1
 269.305664062 500.857421875 278.546875 476.456054688 278.546875 449.953125 c 2
 278.546875 224.953125 l 2
 278.546875 198.450195312 269.305664062 174.048828125 253.88671875 154.791015625 c 1
 292.09375 116.583984375 l 1
 274.416015625 98.90625 l 1
 236.208984375 137.11328125 l 1
 216.97265625 121.7109375 192.602539062 112.453125 166.1328125 112.453125 c 2
 166.046875 112.453125 l 2
 139.543945312 112.453125 115.142578125 121.694335938 95.884765625 137.11328125 c 1
 57.677734375 98.90625 l 1
 40 116.583984375 l 1
 78.20703125 154.791015625 l 1
 62.7880859375 174.048828125 53.546875 198.450195312 53.546875 224.953125 c 2
 53.546875 449.953125 l 2
 53.546875 476.456054688 62.7880859375 500.857421875 78.20703125 520.115234375 c 1
 40 558.322265625 l 1
 57.677734375 576 l 1
166.046875 538.453125 m 2
 117.57421875 538.453125 78.546875 498.42578125 78.546875 449.953125 c 2
 78.546875 224.953125 l 2
 78.546875 176.48046875 117.57421875 136.453125 166.046875 136.453125 c 2
 166.1484375 136.453125 l 2
 214.57421875 136.453125 253.546875 176.513671875 253.546875 224.953125 c 2
 253.546875 449.953125 l 2
 253.546875 498.383789062 214.587890625 538.453125 166.172851562 538.453125 c 2
 166.046875 538.453125 l 2
EndSplineSet
EndChar

StartChar: logicalnot
Encoding: 172 172 103
Width: 285
Flags: HW
LayerCount: 2
Fore
SplineSet
30 387 m 1
 255 387 l 1
 255 237 l 1
 230 237 l 1
 230 363 l 1
 30 363 l 1
 30 387 l 1
EndSplineSet
EndChar

StartChar: acute
Encoding: 180 180 104
Width: 154
Flags: HW
LayerCount: 2
Fore
SplineSet
124.3359375 750 m 1
 95.46875 750 l 1
 30 600 l 1
 48.8671875 600 l 1
 124.3359375 750 l 1
EndSplineSet
EndChar
